<svg width="88" height="88" viewBox="0 0 88 88" fill="none" xmlns="http://www.w3.org/2000/svg">
<path fill-rule="evenodd" clip-rule="evenodd" d="M44 0C68.3005 0 87.9999 19.6992 88 44C88 68.3005 68.3005 88 44 88C19.6997 87.9999 0 68.3005 0 44C9.3315e-05 19.6998 19.6993 9.33098e-05 44 0ZM44 10.0571C25.2539 10.0571 10.0571 25.254 10.0571 44C10.0573 62.746 25.254 77.9429 44 77.9429C62.7458 77.9428 77.9427 62.7459 77.9429 44C77.9429 25.2541 62.7459 10.0572 44 10.0571Z" fill="#4785FF"/>
<path fill-rule="evenodd" clip-rule="evenodd" d="M44 9C63.3299 9 78.9999 24.6698 79 44C79 63.33 63.33 79 44 79C24.6702 78.9999 9 63.3299 9 44C9.00007 24.6703 24.6699 9.00007 44 9ZM44 17C29.0883 17 17 29.0884 17 44C17.0001 58.9116 29.0884 71 44 71C58.9114 70.9999 70.9999 58.9115 71 44C71 29.0885 58.9115 17.0001 44 17Z" fill="#ADC9FF"/>
</svg>
